HIERARCHY
ROOT Hips
{
	OFFSET 0.00 0.00 0.00
	CHANNELS 6 Xposition Yposition Zposition Xrotation Yrotation Zrotation
	JOINT RightUpLeg
	{
		OFFSET -3.69398 0.00000 0.00000
		CHANNELS 3 Xrotation Yrotation Zrotation
		JOINT RightLeg
		{
			OFFSET 0.00000 -15.79567 0.00000
			CHANNELS 3 Xrotation Yrotation Zrotation
			JOINT RightFoot
			{
				OFFSET 0.00000 -14.76699 0.00000
				CHANNELS 3 Xrotation Yrotation Zrotation
				JOINT RightToeBase
				{
					OFFSET 0.00000 -1.28446 4.79369
					CHANNELS 3 Xrotation Yrotation Zrotation
					End Site
					{
						OFFSET 0.00000 0.00000 2.95275
					}
				}
			}
		}
	}
	JOINT LeftUpLeg
	{
		OFFSET 3.69398 0.00000 0.00000
		CHANNELS 3 Xrotation Yrotation Zrotation
		JOINT LeftLeg
		{
			OFFSET 0.00000 -15.79567 0.00000
			CHANNELS 3 Xrotation Yrotation Zrotation
			JOINT LeftFoot
			{
				OFFSET 0.00000 -14.76699 0.00000
				CHANNELS 3 Xrotation Yrotation Zrotation
				JOINT LeftToeBase
				{
					OFFSET 0.00000 -1.28446 4.79369
					CHANNELS 3 Xrotation Yrotation Zrotation
					End Site
					{
						OFFSET 0.00000 0.00000 2.95275
					}
				}
			}
		}
	}
	JOINT Spine
	{
		OFFSET 0.00000 2.39296 0.00000
		CHANNELS 3 Xrotation Yrotation Zrotation
		JOINT RightShoulder
		{
			OFFSET 0.00000 13.20741 0.00000
			CHANNELS 3 Xrotation Yrotation Zrotation
			JOINT RightArm
			{
				OFFSET -8.14047 0.00000 0.00000
				CHANNELS 3 Xrotation Yrotation Zrotation
				JOINT RightForeArm
				{
					OFFSET -10.64984 0.00000 0.00000
					CHANNELS 3 Yrotation Zrotation Xrotation
					JOINT RightHand
					{
						OFFSET -8.30462 0.00000 0.00000
						CHANNELS 3 Xrotation Yrotation Zrotation
						End Site
						{
							OFFSET -3.93700 0.00000 0.00000
						}
						JOINT RightHandThumb1
						{
							OFFSET 0.00000 0.00000 0.00000
							CHANNELS 3 Xrotation Zrotation Yrotation
							End Site
							{
								OFFSET 0.00000 0.00000 3.93700
							}
						}
					}
				}
			}
		}
		JOINT LeftShoulder
		{
			OFFSET 0.00000 13.20741 0.00000
			CHANNELS 3 Xrotation Yrotation Zrotation
			JOINT LeftArm
			{
				OFFSET 8.14047 0.00000 0.00000
				CHANNELS 3 Xrotation Yrotation Zrotation
				JOINT LeftForeArm
				{
					OFFSET 10.64984 0.00000 0.00000
					CHANNELS 3 Yrotation Zrotation Xrotation
					JOINT LeftHand
					{
						OFFSET 8.30462 0.00000 0.00000
						CHANNELS 3 Xrotation Yrotation Zrotation
						End Site
						{
							OFFSET 3.93700 0.00000 0.00000
						}
						JOINT LeftHandThumb1
						{
							OFFSET 0.00000 0.00000 0.00000
							CHANNELS 3 Xrotation Zrotation Yrotation
							End Site
							{
								OFFSET 0.00000 0.00000 3.93700
							}
						}
					}
				}
			}
		}
		JOINT Head
		{
			OFFSET 0.00000 19.25010 0.00000
			CHANNELS 3 Xrotation Yrotation Zrotation
			End Site
			{
				OFFSET 0.00000 4.52755 0.00000
			}
		}
	}
}
MOTION
Frames: 17
Frame Time: 0.008333
 0.8911 32.5529 -3.2381 40.5504 3.4223 -1.2924 -30.1512 -12.6967 1.7046 -4.0555 0.0000 0.0000 -9.8790 -4.4380 17.9988 19.7683 -0.0000 -0.0000 -33.3926 4.5091 -0.6186 0.7220 0.0000 -0.0000 -10.8426 -4.4372 -9.6867 10.6100 -0.0000 -0.0000 -43.1355 -1.9052 -1.2461 -24.3901 -1.4953 -46.0215 9.3699 12.4299 38.3706 -5.7573 0.0000 -3.8150 -0.7327 4.3941 9.4768 32.8623 0.0000 -24.3270 -6.5289 11.4246 42.1907 -24.7985 -8.5563 -35.4575 4.3909 0.0000 21.1590 0.8065 26.5130 -1.8063 33.1476 -0.0000 26.2537 6.0056 -1.4879 5.1109
 0.8892 32.5527 -3.2385 40.5351 3.4211 -1.2808 -30.1492 -12.6967 1.6982 -4.0392 -0.0000 -0.0000 -9.8955 -4.4310 18.0015 19.7530 -0.0000 0.0000 -33.3914 4.5237 -0.6237 0.7515 -0.0000 0.0000 -10.8508 -4.4410 -9.6829 10.6098 0.0000 -0.0000 -43.1469 -1.9229 -1.2570 -24.3768 -1.4964 -46.0374 9.3451 12.5093 38.3887 -5.7487 0.0000 -3.7243 -0.7470 4.5231 9.3886 32.8623 0.0000 -24.3270 -6.5106 11.4334 42.2212 -24.7298 -8.6717 -35.4641 4.3668 0.0000 21.1078 0.8426 26.5676 -1.8834 33.1476 -0.0000 26.2537 6.1411 -1.4732 5.1376
 0.8876 32.5530 -3.2372 40.5083 3.4060 -1.2730 -30.1246 -12.6624 1.7014 -4.0311 0.0000 0.0000 -9.8881 -4.4461 18.0036 19.7928 0.0000 -0.0000 -33.3686 4.5589 -0.6188 0.7667 0.0000 -0.0000 -10.8619 -4.4560 -9.6653 10.5566 -0.0000 -0.0000 -43.1522 -1.9344 -1.2506 -24.3760 -1.4627 -46.0307 9.3695 12.5640 38.3746 -5.7504 0.0000 -3.6875 -0.7509 4.5631 9.3548 32.8623 0.0000 -24.3270 -6.5021 11.4157 42.2293 -24.7479 -8.6996 -35.4531 4.3506 0.0000 21.0960 0.8457 26.6157 -1.8873 33.1476 -0.0000 26.2537 6.2814 -1.4552 5.1518
 0.8861 32.5532 -3.2366 40.4888 3.4071 -1.2681 -30.1108 -12.6585 1.6989 -4.0194 -0.0000 0.0000 -9.8665 -4.4555 18.0638 19.7353 0.0000 -0.0000 -33.3493 4.5622 -0.6219 0.7685 0.0000 0.0000 -10.8600 -4.4353 -9.6663 10.5904 0.0000 -0.0000 -43.1620 -1.9615 -1.2525 -24.3624 -1.4518 -46.0253 9.3627 12.6252 38.3582 -5.7545 0.0000 -3.6598 -0.7548 4.5687 9.3913 32.8623 0.0000 -24.3270 -6.4953 11.4120 42.2345 -24.7552 -8.7453 -35.4470 4.3304 0.0000 21.1033 0.8197 26.6473 -1.8271 33.1476 -0.0000 26.2537 6.4162 -1.4294 5.1627
 0.8846 32.5528 -3.2368 40.4684 3.4063 -1.2632 -30.0950 -12.6439 1.6974 -4.0163 -0.0000 -0.0000 -9.8984 -4.4710 18.0082 19.7703 0.0000 0.0000 -33.3399 4.5677 -0.6221 0.7913 -0.0000 0.0000 -10.8673 -4.4418 -9.6513 10.5832 0.0000 0.0000 -43.1656 -1.9794 -1.2544 -24.3666 -1.4396 -46.0172 9.3557 12.6689 38.3354 -5.7542 0.0000 -3.6096 -0.7557 4.5748 9.3904 32.8623 0.0000 -24.3270 -6.4797 11.4092 42.2318 -24.8887 -8.7201 -35.4513 4.3214 0.0000 21.2776 0.7562 26.6222 -1.6872 33.1476 -0.0000 26.2537 6.5282 -1.4208 5.1810
 0.8832 32.5530 -3.2353 40.4471 3.4019 -1.2607 -30.0730 -12.6207 1.6997 -4.0079 -0.0000 -0.0000 -9.9000 -4.4738 17.9835 19.7414 0.0000 0.0000 -33.3218 4.5818 -0.6195 0.8021 -0.0000 0.0000 -10.8751 -4.4373 -9.6406 10.5736 -0.0000 0.0000 -43.1735 -1.9964 -1.2504 -24.3664 -1.4372 -46.0112 9.3431 12.7283 38.3128 -5.7859 0.0000 -3.6070 -0.7643 4.6029 9.4386 32.8623 0.0000 -24.3270 -6.4642 11.4074 42.2394 -24.8846 -8.7619 -35.4521 4.2688 0.0000 21.3817 0.7686 26.6382 -1.7140 33.1476 -0.0000 26.2537 6.6501 -1.3940 5.1938
 0.8816 32.5527 -3.2331 40.4263 3.3966 -1.2560 -30.0473 -12.6183 1.7031 -4.0143 0.0000 0.0000 -9.8745 -4.4812 18.0575 19.6988 -0.0000 -0.0000 -33.2961 4.5764 -0.6177 0.7987 0.0000 0.0000 -10.8826 -4.4184 -9.6456 10.5671 -0.0000 0.0000 -43.1869 -2.0063 -1.2466 -24.3610 -1.4322 -46.0119 9.3264 12.7662 38.3010 -5.8053 0.0000 -3.5832 -0.7717 4.6322 9.4696 32.8623 0.0000 -24.3270 -6.4248 11.4101 42.2385 -24.8755 -8.8053 -35.4406 4.2049 0.0000 21.3807 0.7693 26.6643 -1.7139 33.1476 -0.0000 26.2537 6.7794 -1.3723 5.1984
 0.8814 32.5524 -3.2334 40.4151 3.3957 -1.2502 -30.0455 -12.6194 1.6975 -4.0009 -0.0000 -0.0000 -9.9287 -4.4949 18.0697 19.8298 -0.0000 -0.0000 -33.2891 4.5714 -0.6248 0.8110 -0.0000 -0.0000 -10.8247 -4.4485 -9.4329 10.2570 -0.0000 0.0000 -43.1955 -2.0151 -1.2452 -24.3758 -1.4294 -46.0058 9.3164 12.7985 38.2778 -5.8290 0.0000 -3.5439 -0.7734 4.6380 9.4785 32.8623 0.0000 -24.3270 -6.4190 11.4104 42.2509 -24.8813 -8.8348 -35.4503 4.1497 0.0000 21.3970 0.7854 26.6697 -1.7493 33.1476 -0.0000 26.2537 6.8735 -1.3688 5.2135
 0.8800 32.5524 -3.2336 40.4062 3.3946 -1.2528 -30.0384 -12.5990 1.7017 -3.9921 -0.0000 -0.0000 -9.9184 -4.4903 17.9894 19.7068 0.0000 0.0000 -33.2857 4.5685 -0.6174 0.8184 -0.0000 0.0000 -10.8870 -4.4147 -9.6142 10.5643 -0.0000 -0.0000 -43.2042 -2.0245 -1.2411 -24.3949 -1.4386 -45.9996 9.3235 12.8475 38.2542 -5.8479 0.0000 -3.5175 -0.7719 4.6320 9.4713 32.8623 0.0000 -24.3270 -6.4227 11.4097 42.2640 -24.8708 -8.8863 -35.4603 4.1078 0.0000 21.3898 0.7823 26.7037 -1.7404 33.1476 -0.0000 26.2537 6.9589 -1.3698 5.2419
 0.8797 32.5521 -3.2332 40.3892 3.4007 -1.2510 -30.0204 -12.6072 1.6998 -3.9955 -0.0000 0.0000 -9.9268 -4.4897 18.0065 19.8198 0.0000 0.0000 -33.2688 4.5452 -0.6220 0.8202 0.0000 -0.0000 -10.8907 -4.3861 -9.6081 10.5719 0.0000 -0.0000 -43.2092 -2.0327 -1.2426 -24.3995 -1.4396 -45.9875 9.3556 12.8725 38.2228 -5.8402 0.0000 -3.4931 -0.7711 4.6481 9.4303 32.8623 0.0000 -24.3270 -6.4089 11.3981 42.2690 -24.8617 -8.9243 -35.4684 4.0981 0.0000 21.3296 0.7276 26.6732 -1.6206 33.1476 -0.0000 26.2537 7.0473 -1.3707 5.2714
 0.8791 32.5521 -3.2337 40.3834 3.4051 -1.2557 -30.0140 -12.5953 1.7034 -3.9926 -0.0000 0.0000 -9.9196 -4.5041 17.9755 19.7060 0.0000 0.0000 -33.2691 4.5384 -0.6182 0.8294 0.0000 -0.0000 -10.8917 -4.3926 -9.6002 10.5057 -0.0000 -0.0000 -43.2199 -2.0393 -1.2398 -24.4160 -1.4343 -45.9759 9.4124 12.8978 38.1941 -5.8397 0.0000 -3.5105 -0.7663 4.6256 9.4169 32.8623 0.0000 -24.3270 -6.4191 11.3849 42.2847 -24.8487 -8.9691 -35.4945 4.0953 0.0000 21.3854 0.6963 26.6836 -1.5503 33.1476 -0.0000 26.2537 7.1228 -1.3650 5.2993
 0.8784 32.5517 -3.2343 40.3760 3.4134 -1.2612 -30.0075 -12.6039 1.7057 -3.9892 0.0000 -0.0000 -9.9261 -4.5109 17.9788 19.7597 -0.0000 0.0000 -33.2666 4.5364 -0.6154 0.8331 -0.0000 -0.0000 -10.9017 -4.3899 -9.6153 10.5475 0.0000 -0.0000 -43.2258 -2.0482 -1.2369 -24.4194 -1.4454 -45.9709 9.4477 12.9040 38.1755 -5.8198 0.0000 -3.5186 -0.7647 4.6686 9.3131 32.8623 0.0000 -24.3270 -6.4102 11.3836 42.2896 -24.8729 -8.9746 -35.4964 4.0678 0.0000 21.4933 0.7248 26.6126 -1.6178 33.1476 -0.0000 26.2537 7.1800 -1.3678 5.3258
 0.8785 32.5514 -3.2355 40.3661 3.4286 -1.2585 -29.9995 -12.6143 1.6945 -3.9944 -0.0000 0.0000 -9.9452 -4.4959 17.9570 19.7971 -0.0000 0.0000 -33.2618 4.5232 -0.6258 0.8383 -0.0000 -0.0000 -10.8963 -4.3887 -9.6153 10.5277 0.0000 -0.0000 -43.2280 -2.0601 -1.2469 -24.4266 -1.4451 -45.9690 9.4694 12.8906 38.1723 -5.7989 0.0000 -3.5063 -0.7578 4.6577 9.2517 32.8623 0.0000 -24.3270 -6.3984 11.3777 42.2942 -24.8941 -8.9825 -35.5003 4.0505 0.0000 21.5072 0.7414 26.6242 -1.6540 33.1476 -0.0000 26.2537 7.2311 -1.3666 5.3572
 0.8779 32.5516 -3.2365 40.3576 3.4354 -1.2687 -29.9917 -12.6298 1.7042 -3.9860 -0.0000 0.0000 -9.9391 -4.5029 18.0051 19.7429 0.0000 0.0000 -33.2576 4.5215 -0.6194 0.8402 0.0000 -0.0000 -10.8996 -4.3992 -9.6180 10.5516 -0.0000 -0.0000 -43.2300 -2.0717 -1.2408 -24.4268 -1.4538 -45.9451 9.4575 12.8153 38.1441 -5.7174 0.0000 -3.4942 -0.7192 4.4836 9.1227 32.8623 0.0000 -24.3270 -6.3935 11.3596 42.2919 -24.8591 -9.0261 -35.4915 4.0442 0.0000 21.4174 0.7553 26.6715 -1.6823 33.1476 -0.0000 26.2537 7.2777 -1.3643 5.3994
 0.8777 32.5518 -3.2385 40.3526 3.4437 -1.2803 -29.9897 -12.6421 1.7079 -3.9818 0.0000 0.0000 -9.9378 -4.4925 17.9834 19.7641 -0.0000 0.0000 -33.2625 4.5276 -0.6148 0.8499 -0.0000 0.0000 -10.8438 -4.4557 -9.4435 10.2717 -0.0000 -0.0000 -43.2262 -2.0920 -1.2345 -24.3984 -1.5262 -45.9479 9.3777 12.8000 38.1577 -5.7073 0.0000 -3.4856 -0.7570 4.6766 9.2053 32.8623 0.0000 -24.3270 -6.3924 11.3736 42.2864 -24.8470 -9.0863 -35.4895 4.0592 0.0000 21.3915 0.7720 26.7004 -1.7177 33.1476 -0.0000 26.2537 7.2935 -1.3641 5.4298
 0.8781 32.5520 -3.2400 40.3384 3.4612 -1.2801 -29.9769 -12.6690 1.7000 -3.9856 -0.0000 -0.0000 -9.9100 -4.5038 18.0323 19.6930 -0.0000 -0.0000 -33.2536 4.5187 -0.6248 0.8544 -0.0000 0.0000 -10.8906 -4.4256 -9.6011 10.5052 0.0000 -0.0000 -43.2182 -2.1056 -1.2399 -24.3787 -1.5664 -45.9474 9.3330 12.7558 38.1754 -5.6851 0.0000 -3.4479 -0.7674 4.7857 9.1209 32.8623 0.0000 -24.3270 -6.3859 11.3633 42.2830 -24.8689 -9.0770 -35.4928 4.0646 0.0000 21.4223 0.7736 26.6895 -1.7220 33.1476 -0.0000 26.2537 7.3277 -1.3618 5.4458
 0.8779 32.5523 -3.2424 40.3368 3.4705 -1.2834 -29.9803 -12.6887 1.7000 -3.9799 0.0000 -0.0000 -9.9238 -4.4937 17.9957 19.6607 0.0000 0.0000 -33.2601 4.5285 -0.6264 0.8610 0.0000 -0.0000 -10.8954 -4.4337 -9.6304 10.5742 -0.0000 -0.0000 -43.2154 -2.1170 -1.2383 -24.3773 -1.6000 -45.9500 9.2901 12.7096 38.1982 -5.6554 0.0000 -3.4890 -0.7628 4.7944 9.0505 32.8623 0.0000 -24.3270 -6.3784 11.3600 42.2744 -24.8575 -9.0843 -35.4764 4.0692 0.0000 21.3605 0.7963 26.6798 -1.7730 33.1476 -0.0000 26.2537 7.3368 -1.3639 5.4638
